<?xml version="1.0" standalone="no"?>
<!DOCTYPE svg PUBLIC "-//W3C//DTD SVG 20010904//EN"
 "http://www.w3.org/TR/2001/REC-SVG-20010904/DTD/svg10.dtd">
<svg version="1.0" xmlns="http://www.w3.org/2000/svg"
 width="920.000000pt" height="1024.000000pt" viewBox="0 0 920.000000 1024.000000"
 preserveAspectRatio="xMidYMid meet">
<metadata>
Created by potrace 1.16, written by Peter Selinger 2001-2019
</metadata>
<g transform="translate(0.000000,1024.000000) scale(0.100000,-0.100000)"
fill="#000000" stroke="none">
<path d="M3510 9303 c-194 -13 -362 -36 -425 -58 -38 -14 -121 -32 -184 -40
-63 -9 -142 -24 -175 -34 -34 -10 -81 -22 -106 -26 -105 -17 -218 -103 -244
-184 -27 -83 -36 -163 -28 -251 8 -101 5 -130 -14 -130 -18 0 -18 -10 2 -24
14 -11 14 -16 -1 -54 -10 -24 -15 -56 -12 -75 2 -18 -2 -44 -10 -60 -14 -27
-21 -59 -56 -237 -47 -234 -93 -617 -103 -850 -2 -52 -11 -156 -19 -230 -23
-212 -35 -309 -45 -395 -23 -186 -80 -698 -80 -716 0 -15 7 -19 31 -19 l32 0
-8 -87 c-15 -171 -7 -494 14 -546 9 -23 7 -35 -9 -67 -26 -51 -44 -130 -70
-315 -12 -82 -26 -154 -30 -160 -4 -5 -17 -48 -29 -94 -18 -74 -19 -92 -9
-141 14 -69 -2 -191 -30 -229 -14 -19 -21 -51 -25 -120 -7 -94 -34 -276 -63
-421 -8 -41 -28 -103 -44 -136 -29 -59 -30 -65 -23 -155 6 -88 10 -101 62
-203 40 -80 55 -119 53 -145 -6 -116 -3 -141 22 -221 14 -47 33 -93 40 -103
12 -15 10 -33 -14 -125 -16 -59 -40 -143 -53 -187 -14 -44 -28 -95 -31 -114
-13 -75 100 -354 189 -464 51 -64 97 -100 208 -163 68 -39 74 -46 114 -120 23
-43 42 -87 42 -96 1 -9 20 -45 43 -80 24 -35 50 -76 58 -92 27 -52 28 -52 260
-28 52 6 145 14 205 17 62 4 134 15 166 26 31 10 71 21 90 24 19 3 48 15 64
25 17 11 46 26 65 35 67 31 549 185 579 185 9 0 33 5 54 11 33 9 42 18 59 57
19 41 44 79 122 179 15 19 23 62 37 182 9 86 29 217 43 291 14 74 32 183 41
242 8 58 24 148 34 200 10 51 22 156 25 233 12 233 60 417 204 770 35 88 97
241 137 340 40 98 78 181 84 183 7 2 11 -15 11 -50 0 -208 48 -555 86 -630 8
-15 37 -83 64 -150 65 -160 104 -350 119 -583 6 -93 24 -262 41 -375 27 -181
30 -220 24 -335 -7 -141 -1 -168 51 -225 21 -23 24 -37 29 -159 6 -145 16
-171 63 -171 40 0 76 -25 137 -94 32 -36 64 -66 72 -66 8 0 36 -19 62 -43 84
-77 136 -115 207 -150 104 -52 216 -86 303 -92 42 -3 91 -8 107 -10 17 -3 82
-7 145 -10 173 -8 221 -14 299 -35 86 -24 110 -25 118 -4 3 8 17 20 30 25 13
5 31 21 40 37 10 17 45 43 91 67 72 38 146 102 204 177 15 19 48 45 73 58 67
35 85 61 85 129 0 65 22 103 127 224 30 33 33 43 33 98 0 33 6 72 14 87 12 24
12 39 1 104 -7 41 -19 86 -26 99 -36 67 -53 275 -24 299 25 21 65 101 65 131
0 15 11 59 25 97 14 38 25 76 25 83 0 8 6 25 13 39 14 27 17 36 47 140 10 36
30 98 45 138 l26 73 -21 122 c-12 67 -23 158 -25 202 -2 51 -9 92 -20 114 -15
29 -16 41 -6 85 11 51 9 79 -20 227 -14 69 5 162 55 284 19 44 36 87 39 96 3
10 -7 59 -24 110 -16 52 -40 145 -54 208 -25 112 -94 330 -121 382 -10 21 -11
49 -3 140 9 108 20 275 23 346 1 18 3 33 6 33 3 0 5 102 6 227 1 232 4 294 15
287 4 -2 19 38 34 89 71 241 72 390 2 567 -12 30 -22 58 -23 63 -1 4 -2 8 -3
10 -2 1 -4 13 -7 27 -3 19 -2 22 6 10 7 -10 10 62 10 225 0 132 2 272 6 310 3
39 6 77 6 85 1 8 -2 49 -6 90 -4 41 -8 89 -9 106 -1 17 -8 38 -16 47 -7 10
-10 17 -5 17 4 0 3 5 -4 12 -7 7 -12 22 -12 35 0 13 -3 23 -7 23 -5 0 -9 12
-10 26 0 15 -5 29 -10 33 -5 3 -10 22 -12 41 -1 19 -6 39 -11 43 -4 5 -6 24
-3 42 3 26 -5 51 -39 112 -23 43 -41 80 -39 81 1 2 -1 7 -5 10 -4 4 -4 0 1 -8
5 -8 4 -12 0 -7 -12 10 -15 38 -4 31 5 -3 9 0 9 5 0 6 -5 11 -11 11 -8 0 -8 5
1 15 7 8 10 20 7 27 -2 7 0 58 5 113 5 55 10 141 12 191 1 49 5 95 9 101 4 5
-3 40 -15 77 -18 55 -25 67 -40 63 -10 -3 -29 3 -42 14 -13 10 -89 42 -168 69
-133 47 -197 69 -515 170 -67 22 -141 42 -165 46 -24 3 -97 16 -163 29 -66 13
-156 28 -200 34 -44 6 -96 13 -115 16 -121 18 -157 23 -170 24 -117 4 -269 14
-365 25 -66 7 -167 11 -225 10 -344 -10 -488 -5 -641 21 -118 20 -184 26 -303
26 -83 -1 -257 1 -386 2 -129 1 -255 1 -280 0z"/>
</g>
</svg>
