<svg width="500" height="600" viewBox="0 0 500 600" xmlns="http://www.w3.org/2000/svg">
    <!-- Fundo transparente -->
    <rect width="100%" height="100%" fill="none"/>

    <!-- Capuz -->
    <path d="M150 50 Q250 -30 350 50 Q370 100 330 150 Q250 90 170 150 Q130 100 150 50 Z" fill="black"/>

    <!-- Corpo principal da blusa -->
    <path d="M100 150 Q250 70 400 150 L450 500 Q440 580 250 590 Q60 580 50 500 Z" fill="black"/>

    <!-- Mangas (ajustadas para ficarem fiéis à imagem) -->
    <path d="M40 200 Q60 150 100 150 L130 400 Q110 500 70 530 Q40 500 40 400 Z" fill="black"/>
    <path d="M460 200 Q440 150 400 150 L370 400 Q390 500 430 530 Q460 500 460 400 Z" fill="black"/>

    <!-- Cordões do capuz -->
    <line x1="230" y1="100" x2="230" y2="200" stroke="gray" stroke-width="5"/>
    <line x1="270" y1="100" x2="270" y2="200" stroke="gray" stroke-width="5"/>

    <!-- Barra e punhos da blusa -->
    <rect x="50" y="520" width="80" height="40" fill="gray"/>
    <rect x="370" y="520" width="80" height="40" fill="gray"/>
    <rect x="120" y="550" width="260" height="30" fill="gray"/>
</svg>
