<?xml version="1.0" standalone="no"?>
<!DOCTYPE svg PUBLIC "-//W3C//DTD SVG 20010904//EN"
 "http://www.w3.org/TR/2001/REC-SVG-20010904/DTD/svg10.dtd">
<svg version="1.0" xmlns="http://www.w3.org/2000/svg"
 width="360.000000pt" height="360.000000pt" viewBox="0 0 360.000000 360.000000"
 preserveAspectRatio="xMidYMid meet">
<metadata>
Created by potrace 1.16, written by Peter Selinger 2001-2019
</metadata>
<g transform="translate(0.000000,360.000000) scale(0.100000,-0.100000)"
fill="#000000" stroke="none">
<path d="M1487 3329 c-43 -5 -101 -17 -130 -27 l-52 -17 -7 -68 c-3 -37 -20
-107 -36 -155 -31 -90 -55 -195 -42 -187 4 3 10 20 13 40 3 19 17 73 32 120
27 89 33 95 79 73 30 -13 29 -18 -16 -145 -29 -80 -78 -163 -97 -163 -6 0 -12
12 -14 28 -3 21 -4 21 -3 -5 1 -18 -2 -34 -6 -35 -4 -2 -10 -32 -12 -68 -4
-56 -4 -58 3 -16 5 37 14 55 36 72 16 12 33 22 39 21 6 -1 10 3 11 8 0 6 15
40 33 77 17 37 32 72 32 78 0 6 4 8 10 5 10 -6 17 22 18 69 0 46 22 60 75 48
l46 -9 4 31 c3 20 4 16 3 -11 -1 -24 2 -43 6 -43 5 0 8 3 9 8 0 4 2 16 4 26 4
23 8 97 5 111 -1 6 -6 -1 -10 -15 l-8 -25 -1 25 c-2 44 -21 0 -21 -48 l0 -44
-41 7 c-69 12 -144 39 -143 53 1 6 2 36 3 66 l1 55 43 -19 c77 -34 149 -47
284 -49 l72 -1 -3 -67 c-2 -55 -6 -68 -18 -67 -9 1 -47 4 -85 8 -43 4 -60 3
-47 -3 11 -5 50 -12 87 -16 l67 -7 0 -102 c0 -137 27 -437 40 -450 23 -23 7
-23 -36 1 -52 29 -69 23 -34 -12 37 -36 44 -46 68 -97 27 -58 27 -63 2 -163
-38 -152 -80 -426 -95 -623 -9 -108 -18 -389 -22 -624 l-6 -426 -46 -33 c-39
-27 -59 -33 -131 -41 -90 -10 -165 -4 -205 14 -25 11 -25 12 -25 157 0 80 -5
238 -11 351 -6 113 -14 529 -18 925 l-7 720 -2 -560 c-2 -371 3 -726 15 -1052
14 -406 14 -497 4 -517 -7 -13 -11 -30 -8 -38 4 -9 6 -7 6 5 1 17 2 17 28 0
21 -14 53 -19 138 -22 106 -3 252 12 267 27 4 4 9 169 12 367 6 386 20 729 37
890 21 201 112 637 129 618 25 -27 112 -477 129 -669 16 -171 31 -636 31 -941
l0 -262 38 -11 c20 -6 98 -14 173 -17 113 -5 144 -3 188 12 49 16 52 19 46 43
-9 37 -6 385 5 567 14 231 23 1413 12 1535 -18 194 -43 334 -77 435 -18 55
-36 130 -40 167 l-6 66 -62 11 c-151 26 -636 45 -760 30z m801 -83 c-12 -8
-18 -27 -18 -52 -1 -54 -20 -74 -83 -89 l-54 -12 -9 57 -10 58 71 17 c38 10
79 21 90 26 29 11 32 10 13 -5z m-203 -97 c4 -33 6 -62 4 -63 -2 -2 -62 -10
-134 -18 -112 -13 -121 -16 -65 -17 36 0 94 4 130 10 45 7 66 7 68 0 7 -22 30
-11 26 12 -2 12 -2 17 1 11 4 -8 19 -9 48 -3 56 11 69 11 63 0 -4 -5 -3 -11 2
-13 4 -1 15 -31 25 -65 24 -88 62 -165 106 -212 21 -23 33 -41 27 -41 -6 0 -3
-7 7 -14 29 -22 40 -227 33 -586 -3 -168 -7 -435 -7 -595 -1 -159 -5 -375 -10
-480 -5 -104 -11 -269 -15 -366 l-6 -177 -34 -18 c-19 -10 -34 -22 -34 -26 0
-12 -210 -9 -273 3 l-57 12 0 181 c0 246 -17 769 -31 941 -17 230 -67 516
-119 695 -22 74 -27 112 -25 173 1 42 -2 80 -6 83 -5 3 -9 -25 -9 -62 0 -87
-15 -75 -41 31 -19 83 -46 570 -34 626 l6 29 167 3 c92 1 170 4 174 5 3 1 9
-25 13 -59z"/>
</g>
</svg>
