<svg width="600" height="600" viewBox="0 0 600 600" xmlns="http://www.w3.org/2000/svg">
  <g fill="black">
    <polygon points="261,49 259,51 258,51 257,52 255,52 254,53 253,53 252,54 251,54 250,55 240,55 239,56 237,56 236,57 235,57 234,58 231,58 230,59 227,59 226,60 223,60 222,61 219,61 218,62 216,62 215,63 212,63 211,64 209,64 208,65 205,65 204,66 202,66 201,67 198,67 197,68 194,68 193,69 190,69 189,70 185,70 184,71 182,71 181,72 178,72 177,73 174,73 173,74 170,74 169,75 166,75 165,76 163,76 162,77 159,77 158,78 156,78 155,79 152,79 151,80 149,80 148,81 147,81 146,82 145,82 144,83 142,83 139,86 135,86 134,87 132,87 131,88 129,88 128,89 127,89 126,90 125,90 124,91 123,91 122,92 121,92 120,93 119,93 118,94 117,94 116,95 115,95 114,96 113,96 112,97 111,97 110,98 109,98 108,99 107,99 105,101 104,101 103,102 102,102 101,103 100,103 99,104 98,104 97,105 96,105 94,107 93,107 92,108 90,108 89,109 88,109 87,110 86,110 85,111 84,111 82,113 80,113 79,114 78,114 77,115 76,115 75,116 74,116 73,117 72,117 71,118 70,118 69,119 68,119 67,120 65,120 64,121 63,121 62,122 61,122 60,123 59,123 58,124 57,124 56,125 54,125 53,126 52,126 51,127 50,127 49,128 47,128 46,129 45,129 44,130 43,130 42,131 40,131 39,132 38,132 37,133 36,133 35,134 34,134 33,135 32,135 31,136 29,136 27,138 26,138 25,139 24,139 23,140 21,140 20,141 19,141 18,142 16,142 15,143 14,143 13,144 12,144 11,145 10,145 9,146 8,146 6,148 5,148 4,149 3,149 2,150 2,153 3,154 3,155 4,156 4,157 5,158 5,159 6,160 6,161 7,162 7,163 8,164 8,165 9,166 9,167 10,168 10,169 11,170 11,171 12,172 12,173 13,174 13,176 14,177 14,178 16,180 16,182 17,183 17,184 18,185 18,187 19,188 19,189 21,191 21,192 22,193 22,194 23,195 23,196 24,197 24,199 26,201 26,202 27,203 27,204 28,205 28,206 29,207 29,208 30,209 30,210 31,211 31,212 32,213 32,214 33,215 33,216 34,217 34,218 35,219 35,220 36,221 36,222 37,223 37,224 38,225 38,226 39,227 39,228 40,229 40,230 41,231 41,232 42,233 42,234 43,235 43,236 44,237 44,238 45,239 45,240 47,242 47,243 53,243 54,242 61,242 62,241 66,241 67,240 70,240 71,239 77,239 78,238 82,238 83,237 87,237 88,236 91,236 92,235 95,235 96,234 99,234 100,233 103,233 104,232 108,232 109,231 112,231 113,230 115,230 116,229 117,229 118,228 120,228 121,227 123,227 125,229 125,230 126,231 126,236 125,237 125,238 126,239 126,315 127,316 127,393 128,394 128,438 127,439 127,492 126,493 126,526 127,527 127,533 126,534 126,548 127,548 128,549 471,549 472,548 473,548 473,464 472,463 472,339 473,338 473,279 474,278 474,231 475,230 475,229 476,228 476,227 477,226 478,227 479,227 480,228 481,228 482,229 483,229 484,230 487,230 488,231 491,231 492,232 496,232 497,233 500,233 501,234 503,234 504,235 508,235 509,236 512,236 513,237 516,237 517,238 521,238 522,239 528,239 529,240 533,240 534,241 538,241 539,242 546,242 547,243 552,243 554,241 554,240 555,239 555,238 556,237 556,236 557,235 557,234 558,233 558,232 559,231 559,230 560,229 560,228 561,227 561,226 562,225 562,224 563,223 563,222 564,221 564,220 565,219 565,218 566,217 566,216 567,215 567,214 568,213 568,212 569,211 569,210 570,209 570,208 571,207 571,206 572,205 572,204 573,203 573,202 574,201 574,200 575,199 575,198 576,197 576,196 577,195 577,194 578,193 578,192 579,191 579,190 581,188 581,186 582,185 582,184 583,183 583,182 584,181 584,180 585,179 585,177 586,176 586,175 587,174 587,173 588,172 588,171 589,170 589,169 591,167 591,166 592,165 592,163 593,162 593,161 594,160 594,159 595,158 595,157 597,155 597,153 598,152 598,150 597,150 596,149 595,149 593,147 592,147 591,146 590,146 588,144 587,144 586,143 585,143 584,142 582,142 581,141 579,141 578,140 577,140 576,139 575,139 574,138 573,138 572,137 571,137 570,136 569,136 568,135 567,135 566,134 565,134 564,133 562,133 561,132 560,132 559,131 558,131 557,130 555,130 554,129 553,129 552,128 551,128 550,127 549,127 548,126 546,126 545,125 544,125 543,124 542,124 541,123 539,123 538,122 537,122 536,121 535,121 534,120 533,120 532,119 531,119 530,118 528,118 527,117 526,117 525,116 524,116 523,115 522,115 521,114 520,114 519,113 518,113 517,112 516,112 515,111 514,111 513,110 512,110 511,109 510,109 509,108 508,108 507,107 506,107 505,106 504,106 503,105 502,105 501,104 500,104 498,102 497,102 496,101 495,101 494,100 493,100 492,99 491,99 490,98 489,98 487,96 485,96 483,94 482,94 481,93 480,93 479,92 478,92 477,91 476,91 475,90 473,90 472,89 471,89 470,88 468,88 467,87 465,87 464,86 461,86 459,84 458,84 457,83 456,83 455,82 454,82 453,81 451,81 450,80 448,80 447,79 444,79 443,78 441,78 440,77 438,77 437,76 434,76 433,75 431,75 430,74 426,74 425,73 422,73 421,72 418,72 417,71 415,71 414,70 411,70 410,69 406,69 405,68 402,68 401,67 399,67 398,66 395,66 394,65 392,65 391,64 388,64 387,63 384,63 383,62 381,62 380,61 377,61 376,60 374,60 373,59 369,59 368,58 366,58 365,57 361,57 360,56 356,56 355,55 344,55 343,54 340,54 339,53 338,53 337,52 333,52 332,51 331,51 330,50 326,50 325,51 324,51 320,55 319,55 318,56 316,56 315,57 312,57 311,58 304,58 303,59 297,59 296,58 287,58 286,57 283,57 282,56 280,56 279,55 277,55 276,54 275,54 274,53 272,53 271,52 270,52 269,51 268,51 267,50 265,50 264,49" />
  </g>
</svg>
