<svg width="500" height="600" viewBox="0 0 500 600" xmlns="http://www.w3.org/2000/svg">
    <!-- Fundo transparente -->
    <rect width="100%" height="100%" fill="none"/>

    <!-- Corpo da camisa -->
    <path d="M120 140 L380 140 L420 550 L80 550 Z" fill="black"/>

    <!-- Mangas -->
    <path d="M30 180 L120 140 L140 250 L50 270 Z" fill="black"/>
    <path d="M470 180 L380 140 L360 250 L450 270 Z" fill="black"/>

    <!-- Gola corrigida (mais realista e próxima do modelo) -->
    <path d="M180 140 Q250 40 320 140 L280 140 Q250 80 220 140 Z" fill="black"/>
    <path d="M220 140 L250 100 L280 140 Z" fill="gray"/> <!-- Parte interna do colarinho -->

    <!-- Linha central e botões (áreas não editáveis) -->
    <path d="M250 140 L250 550" stroke="gray" stroke-width="5"/>
    <circle cx="250" cy="200" r="5" fill="gray"/>
    <circle cx="250" cy="280" r="5" fill="gray"/>
    <circle cx="250" cy="360" r="5" fill="gray"/>
    <circle cx="250" cy="440" r="5" fill="gray"/>
    <circle cx="250" cy="520" r="5" fill="gray"/>
</svg>
