<?xml version="1.0" standalone="no"?>
<!DOCTYPE svg PUBLIC "-//W3C//DTD SVG 20010904//EN"
 "http://www.w3.org/TR/2001/REC-SVG-20010904/DTD/svg10.dtd">
<svg version="1.0" xmlns="http://www.w3.org/2000/svg"
 width="1300.000000pt" height="1300.000000pt" viewBox="0 0 1300.000000 1300.000000"
 preserveAspectRatio="xMidYMid meet">
<metadata>
Created by potrace 1.16, written by Peter Selinger 2001-2019
</metadata>
<g transform="translate(0.000000,1300.000000) scale(0.100000,-0.100000)"
fill="#000000" stroke="none">
<path d="M4773 12096 c-310 -83 -567 -155 -572 -161 -6 -6 -5 -64 1 -150 10
-149 4 -466 -13 -655 -79 -880 -416 -1653 -986 -2264 l-83 -88 0 -3727 0
-3727 153 -58 c1574 -604 3816 -703 5632 -250 281 70 668 191 875 272 l95 38
3 3731 2 3731 -76 73 c-498 483 -807 1082 -928 1796 -51 300 -60 436 -60 876
l-1 407 -30 9 c-48 16 -1171 301 -1181 301 -5 0 -24 -25 -42 -55 -248 -409
-998 -601 -1602 -410 -104 33 -244 102 -325 160 -78 56 -182 166 -229 243 -23
39 -44 62 -54 61 -9 -1 -270 -69 -579 -153z m173 -1491 c8 -19 -188 -350 -212
-359 -33 -12 -94 -6 -101 10 -6 16 57 268 83 332 l13 32 106 0 c86 0 107 -3
111 -15z m324 -5 c6 -11 8 -26 4 -33 -21 -35 -219 -294 -236 -309 -26 -23
-199 -26 -217 -5 -8 11 12 50 90 173 56 87 110 167 121 177 16 14 39 17 124
17 93 0 104 -2 114 -20z m199 3 c11 -10 74 -94 140 -188 l119 -170 -109 -3
c-60 -1 -159 -1 -220 0 l-111 3 37 48 36 47 75 0 c42 0 74 4 72 8 -11 28 -85
121 -93 119 -5 -2 -46 -54 -90 -115 l-80 -111 -74 -1 -73 0 24 33 c14 17 71
96 128 175 56 78 112 149 124 157 28 20 69 19 95 -2z m2691 -352 c0 -251 -2
-287 -17 -303 -20 -22 -40 -23 -81 -3 l-30 16 49 96 c27 53 49 109 49 124 0
15 -20 65 -45 112 -41 78 -44 88 -38 138 9 84 23 104 72 104 l41 0 0 -284z
m-294 232 c34 -50 41 -77 36 -131 -4 -44 -1 -58 17 -82 11 -16 21 -40 21 -54
0 -14 5 -28 10 -31 17 -10 11 -20 -22 -38 -18 -10 -40 -30 -50 -46 -9 -16 -26
-34 -37 -40 -21 -12 -21 -11 -21 144 0 132 2 155 15 155 26 0 29 30 6 51 -21
20 -27 52 -15 83 9 23 19 20 40 -11z m138 -415 c-3 -18 -13 -57 -21 -85 l-16
-53 -57 0 c-92 0 -106 39 -31 85 18 11 51 34 74 52 53 40 58 40 51 1z m-3364
-1798 l44 -349 31 -3 c30 -3 30 -3 30 -66 l0 -63 -114 0 -113 0 0 63 c0 50 3
64 16 66 9 2 16 10 16 18 0 12 -11 14 -47 12 -46 -3 -76 -28 -33 -28 19 0 21
-4 18 -66 l-3 -65 -113 -2 -112 -2 0 68 0 67 29 0 c35 0 28 -34 76 365 20 160
38 300 41 313 4 21 9 22 97 22 l93 0 44 -350z m562 313 l38 -37 0 -346 0 -346
-33 -32 -34 -33 -194 0 -194 0 0 63 c0 58 2 63 23 66 l22 3 0 285 0 284 -25 0
c-24 0 -25 2 -25 65 l0 65 192 0 192 0 38 -37z m432 15 c5 -22 86 -656 86
-671 0 -4 14 -7 30 -7 l30 0 0 -67 0 -68 -112 2 -113 2 -3 65 c-3 61 -1 66 18
66 11 0 20 7 20 15 0 11 -12 15 -50 15 -36 0 -50 -4 -50 -14 0 -7 9 -16 20
-19 19 -5 21 -12 18 -67 l-3 -62 -115 0 -115 1 0 63 0 63 31 3 31 3 43 350 43
349 94 0 c88 0 93 -1 97 -22z m608 -15 l38 -37 0 -160 0 -160 -37 -38 -37 -38
-103 0 -103 0 0 -115 0 -115 25 0 c25 0 26 -1 23 -66 l-3 -65 -113 -2 -112 -2
0 68 c0 65 1 67 25 67 l25 0 0 285 0 285 -25 0 c-24 0 -25 2 -25 65 l0 65 192
0 192 0 38 -37z m501 -60 l-1 -98 -64 0 -63 0 -3 33 c-2 17 -7 32 -13 32 -5 0
-9 -115 -9 -285 l0 -285 25 0 c24 0 25 -2 25 -67 l0 -68 -112 2 -113 2 0 63
c0 58 2 63 23 66 l22 3 0 285 c0 183 -4 284 -10 284 -5 0 -10 -16 -10 -35 l0
-35 -65 0 -65 0 0 100 0 100 218 0 217 0 -2 -97z m434 65 l33 -32 0 -351 0
-351 -34 -33 -34 -33 -148 1 -147 0 -34 33 -33 32 0 345 0 345 37 38 37 38
145 0 145 0 33 -32z m496 -66 l-1 -97 -64 0 -63 0 -3 33 -3 32 -70 0 -69 0 0
-285 0 -285 70 0 70 0 0 115 0 115 -50 0 -50 0 0 65 0 65 115 0 115 0 0 -213
0 -213 -34 -33 -34 -33 -132 0 -132 0 -39 38 -39 38 0 338 0 338 36 40 36 40
172 -1 171 0 -2 -97z m505 1 l-3 -98 -65 0 -65 0 -3 33 -3 32 -70 0 -69 0 0
-105 0 -105 50 0 50 0 0 -65 0 -65 -50 0 -50 0 0 -115 0 -115 70 0 70 0 0 30
0 30 70 0 71 0 -3 -95 -3 -96 -228 -2 -227 -2 0 68 c0 65 1 67 25 67 l25 0 0
285 0 285 -25 0 c-24 0 -25 2 -25 65 l0 65 230 0 231 0 -3 -97z m286 -110 c45
-111 85 -206 89 -209 4 -4 7 59 7 139 l0 147 -25 0 c-24 0 -25 2 -25 65 l0 65
115 0 115 0 0 -65 c0 -63 -1 -65 -25 -65 l-25 0 -2 -351 -3 -352 -58 0 c-32 0
-62 4 -67 9 -4 5 -43 104 -85 219 -43 116 -82 214 -87 220 -4 5 -8 -64 -8
-153 l0 -162 25 0 c24 0 25 -2 25 -67 l0 -68 -112 2 -113 2 0 63 c0 58 2 63
23 66 l22 3 0 285 0 284 -25 0 c-24 0 -25 2 -25 65 l0 66 91 -3 91 -3 82 -202z
m-2232 -1130 l198 -198 0 -171 0 -171 -435 -600 c-239 -331 -435 -604 -435
-607 0 -3 83 -6 185 -6 l185 0 0 80 0 80 260 0 260 0 0 -330 0 -330 -725 0
-725 0 0 315 0 315 456 616 456 617 -53 53 -53 54 -91 0 -91 0 -61 -62 -62
-63 -3 -85 -3 -85 -247 -3 -248 -2 0 390 0 390 517 0 518 0 197 -197z m1551
-1 l197 -198 0 -170 0 -169 -421 -580 c-231 -319 -429 -592 -440 -607 l-20
-28 190 0 191 0 0 80 0 80 260 0 260 0 0 -330 0 -330 -730 0 -730 0 0 308 c0
274 2 310 17 332 10 14 214 292 455 618 241 326 438 595 438 599 0 4 -23 31
-52 60 l-52 53 -85 0 -85 0 -68 -67 -68 -67 0 -83 0 -83 -247 2 -248 3 -3 375
c-1 206 0 381 3 387 3 10 116 13 523 13 l518 0 197 -198z m1357 -5662 l0 -250
-590 0 -590 0 0 250 0 250 590 0 590 0 0 -250z"/>


<path d="M8636 1791 c-43 -48 42 -95 94 -53 22 18 24 18 41 1 15 -15 32 -18
96 -16 50 1 78 6 81 15 2 7 -7 12 -25 13 -15 0 -21 3 -13 6 43 14 44 16 15 23
l-30 8 28 1 c15 0 27 6 27 11 0 6 -34 10 -82 10 -61 0 -86 -4 -99 -16 -17 -15
-19 -15 -34 0 -22 22 -78 21 -99 -3z"/>
<path d="M8655 1525 c0 -90 1 -95 21 -95 19 0 20 5 17 58 l-3 57 21 -57 c31
-86 49 -78 49 21 0 44 3 86 6 95 5 12 0 16 -20 16 -27 0 -27 -3 -11 -83 6 -29
-8 -10 -26 36 -10 26 -24 43 -35 45 -17 3 -19 -5 -19 -93z"/>
</g>
</svg>
