<?xml version="1.0" standalone="no"?>
<!DOCTYPE svg PUBLIC "-//W3C//DTD SVG 20010904//EN"
 "http://www.w3.org/TR/2001/REC-SVG-20010904/DTD/svg10.dtd">
<svg version="1.0" xmlns="http://www.w3.org/2000/svg"
 width="980.000000pt" height="980.000000pt" viewBox="0 0 980.000000 980.000000"
 preserveAspectRatio="xMidYMid meet">
<metadata>
Created by potrace 1.16, written by Peter Selinger 2001-2019
</metadata>
<g transform="translate(0.000000,980.000000) scale(0.100000,-0.100000)"
fill="#000000" stroke="none">
<path d="M8000 8339 c0 -6 -8 -9 -19 -6 -10 2 -25 0 -34 -4 -9 -6 -18 -5 -22
0 -3 6 -19 4 -39 -4 -18 -8 -36 -12 -39 -9 -3 3 -14 1 -24 -4 -11 -6 -25 -7
-33 -2 -9 6 -18 3 -26 -8 -10 -13 -15 -14 -27 -4 -11 9 -17 10 -22 2 -5 -8
-10 -8 -20 0 -10 8 -14 7 -17 -2 -3 -7 -16 -14 -29 -15 -47 -4 -134 -19 -134
-23 0 -1 -19 -3 -42 -4 -23 -1 -45 -5 -49 -8 -3 -4 -12 -4 -20 -1 -8 3 -21 -2
-28 -12 -12 -17 -13 -17 -20 0 -5 14 -9 15 -21 5 -8 -7 -22 -9 -31 -6 -9 4
-23 1 -30 -5 -11 -9 -14 -9 -14 0 0 7 -5 9 -12 4 -7 -4 -21 -7 -32 -8 -19 0
-45 -29 -35 -39 3 -3 43 -1 90 5 46 6 98 12 114 14 53 5 128 16 210 31 45 8
96 16 115 19 39 5 298 54 319 61 11 3 11 7 1 19 -15 18 -30 20 -30 4z"/>
<path d="M6761 8174 c-11 -25 -14 -27 -24 -13 -15 19 -65 19 -78 -1 -8 -13
-12 -12 -25 5 -15 20 -15 20 -34 -3 -17 -21 -19 -21 -29 -5 -10 17 -12 17 -25
1 -16 -22 -26 -23 -26 -3 0 20 -10 19 -26 -2 -12 -15 -15 -16 -23 -4 -8 12
-12 12 -24 2 -11 -8 -17 -9 -22 -1 -5 8 -11 7 -22 -1 -12 -10 -16 -10 -24 2
-8 12 -10 12 -19 -1 -20 -31 -12 -39 38 -35 115 11 164 14 277 21 66 4 131 8
145 9 14 1 44 3 68 3 39 2 43 4 40 25 -2 15 -9 21 -23 19 -33 -4 -44 -8 -51
-15 -4 -4 -13 1 -19 10 -11 15 -13 15 -19 -5 -9 -28 -20 -28 -32 -1 -9 21 -10
20 -23 -7z"/>
<path d="M4155 8159 c-4 -6 -13 -8 -21 -5 -8 3 -14 1 -14 -4 0 -6 -6 -10 -14
-10 -8 0 -17 -6 -20 -12 -5 -10 -7 -10 -12 1 -5 10 -10 6 -20 -15 l-12 -29 -1
28 c-1 16 -5 26 -10 22 -15 -9 -10 -137 6 -168 8 -16 12 -31 10 -34 -7 -6 37
-49 58 -57 9 -3 15 -12 12 -19 -3 -8 -10 -58 -17 -113 -35 -306 -43 -369 -65
-474 -27 -131 -41 -249 -30 -238 32 30 90 286 115 510 26 232 28 243 51 264
19 17 30 18 132 12 43 -3 53 -8 93 -50 26 -28 44 -56 44 -70 0 -13 -9 -90 -20
-173 -22 -168 -24 -221 -10 -230 12 -7 32 64 65 222 33 165 59 213 115 213 15
0 37 -8 48 -17 l21 -18 -25 -70 c-23 -67 -94 -342 -94 -365 0 -6 5 -8 10 -5 6
3 10 1 10 -4 0 -6 -6 -11 -14 -11 -9 0 -18 -21 -25 -65 -10 -57 -10 -68 4 -82
12 -12 13 -18 4 -23 -6 -5 -8 -13 -4 -20 5 -9 4 -11 -4 -6 -6 4 -9 17 -6 29 5
21 5 21 -4 2 -6 -11 -21 -85 -35 -165 -41 -237 -74 -542 -111 -1035 -8 -110
-24 -256 -35 -325 -11 -69 -20 -146 -20 -171 0 -113 106 -146 150 -47 24 56
47 185 60 328 10 125 74 675 91 780 5 36 21 121 34 190 13 69 36 208 50 310
25 189 87 517 105 558 11 25 34 36 98 46 34 5 42 3 42 -9 0 -8 5 -15 10 -15 6
0 10 9 10 20 0 20 1 20 26 4 14 -9 28 -30 31 -46 4 -18 9 -25 13 -18 17 28 44
4 62 -54 83 -271 102 -583 58 -941 -23 -190 -40 -394 -40 -479 l0 -61 41 -2
c22 0 42 -3 44 -5 2 -2 -2 -86 -10 -187 -14 -193 -18 -206 -62 -196 -29 7 -30
-11 -3 -25 27 -15 59 -4 69 23 5 12 16 110 25 217 10 107 30 303 46 435 16
132 32 276 35 320 4 44 14 101 23 128 13 39 14 53 4 80 -19 53 -15 96 13 129
14 16 25 34 25 38 0 5 -13 25 -30 43 -28 32 -30 40 -30 111 l0 76 34 0 c42 0
51 12 35 42 -16 29 -39 47 -62 48 -10 0 -21 10 -26 23 -18 49 -33 191 -27 250
4 34 11 90 14 124 10 85 31 107 94 99 40 -6 53 -3 78 16 43 31 60 17 87 -72
28 -93 37 -100 30 -24 -7 64 2 84 36 84 10 0 25 7 33 15 11 11 26 13 55 9 34
-6 43 -3 55 15 21 29 42 26 50 -6 3 -16 10 -39 14 -53 8 -24 8 -24 9 7 1 17 6
44 11 58 9 23 13 25 26 14 19 -15 16 -97 -6 -172 -13 -44 -12 -58 13 -185 15
-76 30 -180 33 -232 7 -100 17 -140 34 -140 19 0 10 148 -16 278 -16 76 -27
163 -28 217 -1 102 13 243 25 251 4 2 5 20 2 39 -4 26 -2 36 11 41 14 5 13 8
-5 23 -17 14 -19 20 -10 44 6 16 11 53 11 83 0 53 1 54 29 54 39 0 61 9 61 25
0 15 -27 28 -41 19 -6 -3 -16 -1 -23 5 -10 9 -15 8 -20 -4 -5 -13 -13 -11 -58
12 -50 26 -60 28 -168 27 -98 -1 -152 -9 -265 -37 -5 -1 -16 -6 -24 -11 -8 -5
-16 -4 -21 4 -6 9 -11 8 -19 -6 -10 -18 -12 -18 -25 -1 -13 16 -14 16 -19 -4
-5 -17 -9 -19 -26 -9 -17 9 -22 8 -27 -5 -5 -12 -10 -13 -20 -4 -11 9 -15 7
-20 -5 -10 -27 2 -30 73 -18 83 14 96 8 16 -8 -32 -6 -78 -18 -103 -27 -25 -8
-95 -18 -157 -20 -62 -3 -113 -9 -113 -13 0 -5 -9 -6 -20 -3 -16 4 -20 0 -20
-21 0 -16 -5 -26 -15 -26 -18 0 -20 29 -2 31 6 1 -1 4 -18 8 -16 4 -32 4 -35
1 -10 -10 -30 -10 -30 1 0 8 -5 8 -15 -1 -12 -10 -15 -10 -15 3 0 10 -6 13
-20 10 -16 -4 -20 0 -20 21 0 19 5 26 20 26 15 0 20 7 20 27 0 25 -1 25 -19 9
-19 -17 -20 -17 -24 6 l-4 23 -8 -22 c-7 -23 -25 -32 -25 -13 0 6 -7 10 -15
10 -7 0 -19 8 -24 18 -9 15 -10 15 -11 1 0 -30 -28 -30 -39 -1 -6 17 -10 21
-10 10 -1 -17 -41 -27 -41 -10 0 4 -13 7 -29 8 -16 1 -37 5 -47 9 -11 4 -26 9
-34 10 -8 2 -44 10 -80 19 -74 18 -196 21 -205 5z m282 -2389 c23 0 25 -3 20
-32 -3 -18 -18 -113 -33 -210 l-28 -178 -33 0 c-20 0 -36 6 -39 15 -5 12 41
368 52 404 2 7 11 10 20 7 9 -3 27 -6 41 -6z"/>
<path d="M2006 7984 c-18 -26 -70 -115 -116 -198 -45 -83 -111 -199 -145 -257
-198 -331 -340 -668 -419 -991 -116 -475 -185 -850 -167 -916 17 -61 41 -24
118 183 83 220 113 327 149 524 37 203 68 312 177 636 94 275 128 356 296 695
83 168 153 320 157 338 9 46 -9 41 -50 -14z"/>
<path d="M2405 7838 c-24 -51 -66 -152 -93 -224 -28 -73 -67 -163 -89 -200
-56 -98 -67 -123 -60 -130 7 -7 112 81 131 111 19 30 51 123 91 270 19 72 44
160 54 198 11 37 17 67 15 67 -3 0 -25 -42 -49 -92z"/>
<path d="M2757 7792 c-70 -140 -84 -181 -147 -427 -64 -248 -76 -312 -101
-518 -24 -206 -53 -301 -159 -522 -89 -185 -199 -434 -335 -755 -108 -256
-129 -302 -280 -620 -142 -300 -175 -387 -140 -373 8 3 15 10 15 17 0 6 8 16
18 22 10 7 40 43 66 82 26 39 54 76 62 83 8 6 14 16 14 22 0 5 15 33 34 61 43
66 195 358 312 601 118 246 194 399 332 671 157 311 172 357 202 650 11 105
30 254 44 330 13 77 34 207 45 291 12 83 35 205 51 269 33 127 48 234 34 233
-5 0 -35 -53 -67 -117z"/>
<path d="M3096 7871 c-17 -28 -38 -107 -61 -230 -32 -170 -105 -673 -105 -720
0 -31 2 -33 14 -21 45 46 102 320 131 630 9 96 20 213 25 260 8 86 7 100 -4
81z"/>
<path d="M7384 7770 c4 -110 24 -210 77 -385 77 -252 135 -429 174 -531 46
-118 201 -447 230 -486 l17 -23 -6 29 c-4 16 -43 106 -87 200 -104 222 -142
318 -222 561 -105 321 -146 475 -157 597 -13 149 -30 174 -26 38z"/>
<path d="M6726 7758 c-12 -96 -3 -271 28 -528 28 -242 30 -253 81 -495 19 -88
45 -242 59 -342 49 -342 89 -526 191 -880 70 -240 112 -354 133 -361 20 -6 15
75 -12 200 -14 62 -54 237 -90 388 -89 376 -120 510 -156 680 -17 80 -42 186
-55 235 -46 174 -98 452 -86 460 4 2 23 -29 44 -69 47 -91 96 -146 131 -146
33 0 34 19 2 57 -60 71 -99 186 -136 398 -36 201 -59 315 -68 332 -18 31 -24
-79 -12 -221 7 -78 10 -151 8 -162 -10 -43 -40 184 -47 347 -6 157 -8 167 -15
107z"/>
<path d="M3937 7803 c-3 -5 -17 -48 -31 -98 -38 -128 -99 -275 -159 -384 -59
-107 -80 -127 -104 -96 -12 16 -14 38 -10 105 4 70 15 110 56 223 47 127 64
206 41 192 -19 -12 -123 -207 -141 -266 -15 -48 -19 -92 -19 -207 0 -186 -32
-400 -96 -636 -25 -94 -61 -234 -79 -311 -73 -308 -209 -820 -264 -997 -12
-38 -30 -96 -40 -130 -11 -35 -40 -128 -65 -208 -24 -80 -71 -233 -104 -340
-33 -107 -67 -213 -75 -235 -20 -52 -77 -239 -117 -385 -18 -63 -42 -149 -55
-190 -13 -41 -40 -133 -60 -205 -20 -71 -49 -168 -65 -215 -16 -47 -45 -150
-65 -229 -20 -80 -38 -148 -40 -151 -3 -4 -19 -72 -36 -151 -29 -134 -38 -174
-53 -239 -41 -174 -56 -357 -33 -388 42 -56 151 82 206 263 55 180 105 336
126 395 13 36 28 83 35 105 6 22 15 49 20 60 5 11 16 45 25 75 10 30 23 69 30
85 8 17 25 68 38 115 109 377 130 450 142 485 8 22 24 76 35 120 37 139 48
177 90 315 23 74 53 178 66 230 24 89 42 149 99 325 38 119 80 335 100 515 11
93 68 368 95 450 15 47 38 121 50 165 12 44 44 147 71 229 58 177 73 247 94
432 60 529 58 520 99 561 35 35 84 133 121 242 51 149 104 429 72 374z"/>
<path d="M7444 7694 c7 -81 79 -266 126 -327 23 -29 168 -122 177 -113 3 3 0
22 -8 42 -11 28 -29 46 -73 73 -65 39 -67 42 -171 261 -55 115 -55 115 -51 64z"/>
<path d="M8470 7526 c0 -5 18 -73 39 -150 56 -199 86 -321 116 -471 14 -71 52
-247 85 -390 84 -369 114 -527 205 -1055 30 -179 69 -401 85 -495 16 -93 52
-305 80 -470 71 -427 108 -633 109 -610 0 11 -4 47 -9 80 -6 33 -14 87 -19
120 -12 76 -96 582 -116 695 -8 47 -33 198 -55 335 -22 138 -47 288 -55 335
-8 47 -24 137 -35 200 -10 63 -30 176 -44 250 -25 133 -33 173 -96 460 -67
304 -81 368 -101 470 -47 242 -187 756 -189 696z"/>
<path d="M2075 7463 c-49 -50 -100 -166 -162 -373 -52 -170 -149 -506 -157
-542 -10 -42 14 -46 47 -7 47 55 94 162 158 364 74 231 91 281 125 347 24 47
64 187 64 224 0 24 -45 16 -75 -13z"/>
<path d="M5709 7264 c-20 -25 -15 -248 10 -404 11 -69 28 -170 37 -225 13 -82
15 -155 11 -400 -6 -413 14 -679 78 -1000 26 -129 81 -357 94 -390 36 -88 71
-182 71 -192 0 -14 48 -162 58 -178 3 -5 7 -17 7 -26 2 -20 85 -285 181 -577
41 -123 88 -276 105 -340 28 -106 58 -208 124 -422 23 -78 84 -248 128 -360
101 -258 127 -326 127 -337 0 -7 9 -37 21 -68 43 -116 60 -36 19 95 -6 19 -13
51 -16 70 -3 19 -11 55 -19 80 -8 25 -46 169 -84 320 -119 473 -210 769 -301
980 -10 25 -40 99 -66 165 -25 66 -52 134 -59 150 -7 17 -25 59 -40 95 -15 36
-44 101 -65 145 -21 44 -41 91 -45 105 -4 14 -15 39 -23 55 -15 29 -23 62 -23
95 -1 8 -7 38 -14 65 -23 82 -66 368 -81 535 -17 202 -25 414 -28 795 -3 324
-7 364 -52 510 -30 96 -50 208 -59 330 -6 83 -53 295 -73 331 -7 13 -10 13
-23 -2z"/>
<path d="M4549 4612 c-85 -54 -157 -155 -281 -392 -102 -195 -186 -415 -244
-644 -54 -212 -45 -329 21 -262 12 12 75 114 75 121 0 2 19 43 41 92 88 187
192 411 227 488 19 44 74 154 121 245 185 359 174 335 162 359 -17 30 -67 27
-122 -7z"/>
<path d="M1080 4557 c-42 -65 -65 -152 -65 -247 0 -58 2 -65 20 -65 27 0 52
48 70 136 28 131 13 234 -25 176z"/>
<path d="M4936 4325 c-3 -27 -13 -95 -21 -150 -8 -55 -20 -143 -25 -195 -16
-149 -27 -206 -64 -340 -43 -156 -243 -766 -302 -920 -25 -63 -56 -144 -69
-180 -200 -531 -316 -772 -452 -938 -43 -54 -55 -92 -29 -92 8 0 27 -5 42 -10
l27 -11 -24 -16 c-13 -10 -31 -24 -39 -31 -8 -8 -29 -21 -48 -29 -18 -7 -31
-17 -28 -22 3 -4 30 -13 60 -20 31 -7 59 -17 62 -23 4 -7 -16 -32 -46 -58 -48
-42 -52 -49 -46 -77 24 -108 -83 -107 -566 6 -139 33 -306 69 -370 81 -64 11
-226 46 -360 76 -134 30 -319 71 -413 90 -440 90 -528 110 -785 174 -151 38
-315 83 -364 100 -104 35 -96 33 -96 18 0 -6 3 -8 7 -5 3 4 12 2 20 -4 7 -6
13 -8 13 -4 0 4 7 2 15 -5 8 -7 15 -9 15 -5 0 4 6 3 12 -2 7 -5 45 -18 83 -28
39 -10 75 -22 81 -26 6 -5 27 -11 47 -13 20 -3 44 -9 54 -15 10 -5 20 -9 23
-9 24 -1 195 -44 205 -52 6 -4 17 -8 25 -8 13 0 40 -6 75 -16 6 -2 28 -6 50
-10 22 -5 63 -14 90 -21 78 -19 177 -42 226 -51 155 -28 591 -121 744 -158 55
-13 147 -32 205 -41 58 -9 168 -32 245 -50 77 -18 185 -43 240 -55 55 -12 107
-25 115 -28 8 -3 20 -6 25 -7 6 0 21 -4 35 -8 14 -4 39 -9 55 -12 32 -4 71
-10 120 -19 38 -6 247 -29 260 -28 6 0 63 1 128 2 131 2 140 5 157 70 13 49
50 220 50 232 0 5 4 7 9 4 4 -3 6 6 3 21 -3 18 -1 24 6 19 8 -5 10 -2 6 8 -8
20 16 122 25 107 4 -6 7 6 7 26 0 20 5 38 12 41 7 2 10 7 7 11 -2 4 9 48 24
97 16 49 32 104 36 122 3 18 10 30 15 27 5 -3 7 3 5 12 -1 10 2 23 7 30 5 7 7
17 4 22 -4 5 -2 12 2 15 5 3 9 19 10 35 0 17 8 46 18 66 9 20 14 38 11 42 -4
3 0 18 9 34 8 16 14 30 13 31 -4 6 13 84 21 93 4 6 8 17 9 25 3 42 36 176 44
181 5 4 6 12 3 18 -4 6 -4 17 1 24 4 6 9 21 10 32 3 29 32 157 40 175 4 8 8
22 9 30 9 51 35 203 37 213 1 6 5 14 8 17 4 3 16 66 27 140 11 74 32 178 47
230 15 52 30 113 34 135 5 31 7 19 12 -60 7 -116 39 -272 67 -330 11 -22 23
-55 27 -72 3 -18 10 -33 14 -33 8 0 31 -59 31 -79 0 -7 7 -19 16 -28 8 -9 13
-22 10 -29 -3 -8 -2 -14 3 -14 12 0 42 -81 34 -93 -4 -6 -1 -7 7 -2 10 6 12 4
7 -8 -3 -10 -3 -17 2 -17 12 0 82 -180 75 -192 -5 -7 -2 -8 6 -3 10 6 12 3 8
-13 -4 -12 -3 -20 2 -17 10 6 116 -280 252 -680 60 -176 111 -319 113 -318 3
1 10 3 16 5 6 2 2 22 -10 49 -12 26 -39 111 -60 190 -47 170 -61 219 -106 359
-18 58 -61 195 -95 305 -34 110 -81 254 -103 320 -37 110 -41 129 -42 228 l-1
109 17 -40 c10 -22 62 -172 116 -333 54 -161 99 -283 101 -271 5 30 20 28 34
-5 76 -183 308 -612 308 -571 0 18 -49 139 -117 288 -122 265 -148 332 -222
557 -73 220 -166 483 -249 699 -66 172 -88 252 -112 414 -11 74 -31 200 -45
280 -13 80 -26 159 -28 175 -3 23 -5 19 -6 -15 l-3 -45 -16 35 c-8 19 -21 64
-27 100 l-12 65 -7 -50z"/>
<path d="M9226 3605 c20 -237 105 -1094 115 -1153 11 -68 11 -74 -7 -87 -18
-14 -17 -14 10 -15 l29 0 -7 63 c-9 81 -51 462 -76 697 -25 234 -49 429 -60
500 l-9 55 5 -60z"/>
<path d="M9368 2302 c-4 -24 -14 -52 -24 -63 -17 -18 -16 -19 14 -19 31 0 32
-1 32 -42 0 -24 3 -79 6 -124 l7 -80 -29 -12 c-16 -6 -119 -34 -229 -61 -195
-49 -350 -97 -585 -181 -271 -97 -629 -184 -967 -235 -267 -41 -334 -58 -668
-170 -232 -78 -445 -128 -700 -164 -108 -15 -185 -19 -335 -17 -107 1 -201 5
-208 10 -16 10 -16 -9 1 -22 26 -21 545 -4 652 22 11 2 100 20 197 40 164 33
295 70 473 133 133 47 430 121 570 142 203 30 363 62 540 107 33 8 67 16 75
18 8 1 22 5 30 9 8 3 58 18 110 32 106 29 408 129 456 150 17 8 89 29 160 47
71 18 131 36 134 39 5 6 138 41 170 44 8 1 27 7 41 13 15 6 44 15 65 21 67 19
68 20 61 113 -5 69 -31 247 -41 283 -1 6 -5 -9 -8 -33z"/>
</g>
</svg>
